#!OML:ASF F:\VICON\USERDATA\INSTALL\rory3\rory3.ASF
:FULLY-SPECIFIED
:DEGREES
1870
root -1.82861 18.517 6.25327 1.54336 3.40851 9.8796
lowerback 8.0272 -2.51907 0.941438
upperback 2.17952 -3.24474 0.778229
thorax -2.24681 -1.61631 0.59253
lowerneck -4.22745 -15.6884 -11.8336
upperneck 7.53452 -22.2042 17.6202
head 6.31678 -10.4844 5.31483
rclavicle 5.1684e-015 2.06736e-014
rhumerus 36.5004 -48.5076 -72.5349
rradius 45.4703
rwrist -5.26799
rhand -57.2105 363.869
rfingers 7.12502
rthumb -29.4924 -743.809
lclavicle 5.1684e-015 2.06736e-014
lhumerus -32.974 -3.59018 77.6081
lradius 41.2081
lwrist -15.2829
lhand -32.0136 16.9622
lfingers 7.12502
lthumb -5.26191 46.8768
rfemur -16.6771 23.1777 4.72489
rtibia 35.528
rfoot -19.0932 -10.6492
rtoes -9.33192
lfemur -0.0746921 -3.53939 -12.2606
ltibia 15.8126
lfoot -2.75412 11.951
ltoes -17.1193
1871
root -1.83478 18.5192 6.25811 1.48554 3.46173 9.82606
lowerback 8.05277 -2.54146 0.897348
upperback 2.14892 -3.27512 0.856546
thorax -2.28544 -1.63129 0.702823
lowerneck -4.16163 -15.6823 -11.818
upperneck 7.72595 -22.2114 17.4766
head 6.34599 -10.4895 5.27062
rclavicle -4.57205e-014 3.02153e-014
rhumerus 36.2949 -48.6131 -73.0587
rradius 46.074
rwrist -5.28794
rhand -57.3118 363.153
rfingers 7.12502
rthumb -29.5892 -744.508
lclavicle -4.57205e-014 3.02153e-014
lhumerus -33.1449 -3.38328 77.5835
lradius 41.3196
lwrist -15.0294
lhand -31.8923 16.8663
lfingers 7.12502
lthumb -5.1447 46.7838
rfemur -16.5642 23.1922 4.84408
rtibia 35.5062
rfoot -19.1162 -10.6754
rtoes -8.97929
lfemur -0.0392706 -3.73773 -12.2268
ltibia 15.721
lfoot -2.61928 11.6493
ltoes -17.5012
1872
root -1.83744 18.5259 6.26308 1.44996 3.49555 9.86405
lowerback 8.04406 -2.549 0.79828
upperback 2.13147 -3.29232 0.888626
thorax -2.29111 -1.63959 0.792838
lowerneck -4.08567 -15.6791 -11.7477
upperneck 7.90073 -22.2249 17.3396
head 6.364 -10.4972 5.22163
rclavicle 2.14687e-014 -1.11319e-014
rhumerus 35.8683 -48.5995 -73.4068
rradius 46.7994
rwrist -5.34531
rhand -57.0731 362.976
rfingers 7.12502
rthumb -29.3612 -744.725
lclavicle 2.14687e-014 -1.11319e-014
lhumerus -33.2509 -3.2976 77.5681
lradius 41.395
lwrist -14.6145
lhand -31.6574 16.3378
lfingers 7.12502
lthumb -4.9179 46.2607
rfemur -16.4683 23.187 4.83184
rtibia 35.4895
rfoot -19.1805 -10.5894
rtoes -9.0378
lfemur 0.0238932 -3.87509 -12.309
ltibia 15.5769
lfoot -2.58801 11.4608
ltoes -17.4669
1873
root -1.83738 18.5251 6.26402 1.46501 3.52805 9.89143
lowerback 7.98414 -2.56977 0.702368
upperback 2.12279 -3.32698 0.946392
thorax -2.25776 -1.65668 0.906357
lowerneck -4.07701 -15.682 -11.7097
upperneck 8.10297 -22.2438 17.2052
head 6.4069 -10.5033 5.17052
rclavicle 1.94809e-014 2.06736e-014
rhumerus 35.1888 -48.2772 -73.4402
rradius 47.5798
rwrist -5.51102
rhand -57.6179 363.379
rfingers 7.12502
rthumb -29.8813 -744.23
lclavicle 1.94809e-014 2.06736e-014
lhumerus -33.2418 -3.15246 77.5509
lradius 41.3974
lwrist -14.3913
lhand -31.4844 15.8476
lfingers 7.12502
lthumb -4.75093 45.7744
rfemur -16.4596 23.0952 4.78957
rtibia 35.4711
rfoot -19.1982 -10.4716
rtoes -9.022
lfemur 0.00732549 -3.92982 -12.3781
ltibia 15.3892
lfoot -2.32777 11.2375
ltoes -17.775
1874
root -1.83609 18.5219 6.26555 1.4098 3.49428 9.81993
lowerback 7.97284 -2.57598 0.708817
upperback 2.13211 -3.33301 1.01802
thorax -2.23789 -1.65977 0.976134
lowerneck -4.04525 -15.6783 -11.6875
upperneck 8.2725 -22.254 17.1037
head 6.44046 -10.5069 5.13519
rclavicle -1.51076e-014 1.74931e-014
rhumerus 34.2921 -47.7734 -73.2507
rradius 48.4186
rwrist -5.68774
rhand -58.3474 363.499
rfingers 7.12502
rthumb -30.5772 -743.982
lclavicle -1.51076e-014 1.74931e-014
lhumerus -33.2486 -3.00955 77.5106
lradius 41.4251
lwrist -14.2422
lhand -31.3263 16.4625
lfingers 7.12502
lthumb -4.59818 46.3926
rfemur -16.4081 23.0763 4.87521
rtibia 35.4468
rfoot -19.2029 -10.3521
rtoes -8.52425
lfemur 0.0598238 -3.98363 -12.3511
ltibia 15.2003
lfoot -2.01346 11.0253
ltoes -17.7913
1875
root -1.83304 18.5206 6.26765 1.31674 3.47207 9.75136
lowerback 7.99238 -2.5885 0.705284
upperback 2.14583 -3.3481 1.0786
thorax -2.23053 -1.66729 1.04242
lowerneck -4.08643 -15.6644 -11.5918
upperneck 8.55685 -22.2518 16.8984
head 6.49902 -10.4987 5.05324
rclavicle 3.97569e-016 7.95139e-015
rhumerus 33.4606 -47.3048 -73.2563
rradius 49.3515
rwrist -5.49757
rhand -58.2635 363.326
rfingers 7.12502
rthumb -30.4972 -744.17
lclavicle 3.97569e-016 7.95139e-015
lhumerus -33.3384 -2.91365 77.4686
lradius 41.5323
lwrist -14.175
lhand -31.3836 17.399
lfingers 7.12502
lthumb -4.65355 47.3279
rfemur -16.2931 23.0353 4.97338
rtibia 35.4125
rfoot -19.2407 -10.2455
rtoes -8.26849
lfemur 0.160681 -4.17336 -12.3368
ltibia 15.0532
lfoot -1.96479 11.0413
ltoes -16.2091
1876
root -1.82648 18.5236 6.26851 1.27534 3.46908 9.7942
lowerback 7.91968 -2.60765 0.589907
upperback 2.15734 -3.38274 1.13099
thorax -2.16813 -1.68455 1.15982
lowerneck -4.04296 -15.6152 -11.5843
upperneck 8.80048 -22.2026 16.7506
head 6.54116 -10.4744 5.01484
rclavicle 3.81667e-014 -1.59028e-015
rhumerus 32.9864 -46.9007 -73.6054
rradius 50.2079
rwrist -4.75377
rhand -58.3154 363.395
rfingers 7.12502
rthumb -30.5467 -744.092
lclavicle 3.81667e-014 -1.59028e-015
lhumerus -33.4213 -2.84362 77.475
lradius 41.6213
lwrist -14.1085
lhand -31.5097 17.1092
lfingers 7.12502
lthumb -4.77534 47.0354
rfemur -16.1909 22.9366 4.91906
rtibia 35.3457
rfoot -19.2328 -10.1495
rtoes -8.35719
lfemur 0.189139 -4.39833 -12.4824
ltibia 15.0152
lfoot -2.05038 11.3564
ltoes -15.0775
1877
root -1.81712 18.5289 6.26728 1.23485 3.46634 9.8644
lowerback 7.87204 -2.61471 0.474694
upperback 2.15982 -3.40091 1.17602
thorax -2.12948 -1.69359 1.2695
lowerneck -3.90021 -15.5678 -11.6492
upperneck 8.92678 -22.1586 16.7232
head 6.55397 -10.4591 5.03126
rclavicle 1.19271e-014 -2.22639e-014
rhumerus 32.8176 -46.5746 -74.217
rradius 50.9438
rwrist -3.69078
rhand -58.7051 363.948
rfingers 7.12502
rthumb -30.9182 -743.469
lclavicle 1.19271e-014 -2.22639e-014
lhumerus -33.4131 -2.73578 77.4935
lradius 41.6197
lwrist -14.1598
lhand -31.5914 16.906
lfingers 7.12502
lthumb -4.85419 46.8303
rfemur -16.098 22.8117 4.8252
rtibia 35.2693
rfoot -19.1947 -10.0228
rtoes -8.4612
lfemur 0.201418 -4.44048 -12.6665
ltibia 15.0997
lfoot -2.12308 11.7161
ltoes -14.689
1878
root -1.80824 18.5326 6.26538 1.17333 3.40275 9.80736
lowerback 7.91265 -2.59668 0.477927
upperback 2.12899 -3.37401 1.24454
thorax -2.18026 -1.67999 1.33874
lowerneck -3.79703 -15.5292 -11.7517
upperneck 9.13165 -22.1402 16.7328
head 6.61098 -10.4501 5.05486
rclavicle 3.85642e-014 1.59028e-015
rhumerus 32.0448 -45.9211 -74.2459
rradius 51.8371
rwrist -2.79895
rhand -59.0679 364.236
rfingers 7.12502
rthumb -31.264 -743.115
lclavicle 3.85642e-014 1.59028e-015
lhumerus -33.4637 -2.76197 77.5261
lradius 41.7011
lwrist -14.1536
lhand -31.6632 17.3673
lfingers 7.12502
lthumb -4.92353 47.2901
rfemur -16.0323 22.7641 4.8681
rtibia 35.2052
rfoot -19.1241 -9.92996
rtoes -8.58659
lfemur 0.1897 -4.39738 -12.7012
ltibia 15.3106
lfoot -2.25595 12.1184
ltoes -15.0729
1879
root -1.80048 18.5301 6.25926 1.12822 3.2734 9.80646
lowerback 7.98566 -2.58574 0.403354
upperback 2.08468 -3.36277 1.29212
thorax -2.25949 -1.67379 1.43345
lowerneck -3.7533 -15.4688 -11.868
upperneck 9.45691 -22.0974 16.6914
head 6.70764 -10.4246 5.06181
rclavicle -1.19271e-014 1.74931e-014
rhumerus 30.9494 -44.9274 -73.9865
rradius 52.803
rwrist -1.93922
rhand -59.5328 364.23
rfingers 7.12502
rthumb -31.7069 -743.035
lclavicle -1.19271e-014 1.74931e-014
lhumerus -33.5498 -2.80764 77.5095
lradius 41.8025
lwrist -14.0907
lhand -31.7033 17.2242
lfingers 7.12502
lthumb -4.96224 47.1461
rfemur -16.0505 22.7867 4.82627
rtibia 35.1693
rfoot -19.0575 -9.81347
rtoes -8.76915
lfemur 0.0664816 -4.38554 -12.7841
ltibia 15.6657
lfoot -2.47708 12.5091
ltoes -15.4009
1880
root -1.79275 18.5258 6.24943 1.07571 3.05238 9.66566
lowerback 8.04477 -2.54359 0.385502
upperback 2.09407 -3.30491 1.38977
thorax -2.27686 -1.6449 1.54108
lowerneck -3.79757 -15.4157 -11.7636
upperneck 9.74862 -22.0432 16.5058
head 6.76405 -10.3905 4.99238
rclavicle -3.69739e-014 6.36111e-015
rhumerus 30.047 -43.895 -73.8821
rradius 53.7286
rwrist -0.893812
rhand -59.8031 364.276
rfingers 7.12502
rthumb -31.9644 -742.938
lclavicle -3.69739e-014 6.36111e-015
lhumerus -33.4445 -2.81748 77.4906
lradius 41.7855
lwrist -14.0309
lhand -31.6317 16.8069
lfingers 7.12502
lthumb -4.89311 46.7304
rfemur -16.1439 22.9495 4.92276
rtibia 35.1603
rfoot -18.9957 -9.73681
rtoes -8.82735
lfemur -0.0775188 -4.37359 -12.7094
ltibia 16.0434
lfoot -2.70385 12.7198
ltoes -15.5886
